<svg width="92" height="74" viewBox="0 0 92 74" fill="none" xmlns="http://www.w3.org/2000/svg">
<g clip-path="url(#clip0_283_544)">
<path d="M25.9325 29.3398C25.8319 32.6207 27.4562 34.066 27.4994 34.991C27.4804 35.179 27.4171 35.3597 27.3146 35.5181C27.212 35.6765 27.0733 35.808 26.91 35.9015L25.07 37.2023C24.8326 37.3681 24.5537 37.4632 24.265 37.4769C24.2075 37.4769 23.0862 37.7371 21.3181 33.7769C20.2412 35.1309 18.8703 36.219 17.3106 36.9581C15.7508 37.6971 14.0435 38.0674 12.3194 38.0406C9.97624 38.1707 3.63687 36.7109 3.96749 29.9179C3.73749 24.3824 8.86937 20.9425 14.1594 21.2316C15.18 21.2316 17.2644 21.2894 20.9156 22.1421V19.8875C21.3037 16.0574 18.8025 13.0945 14.4756 13.5425C14.1306 13.5425 11.6869 13.4703 7.89187 15.0023C6.82811 15.4937 6.69874 15.407 6.33936 15.407C5.27561 15.407 5.70687 12.2996 5.92249 11.9093C6.66999 10.9843 11.0831 9.24996 15.3956 9.27886C18.2876 9.02288 21.1636 9.92101 23.4025 11.7793C24.3139 12.8031 25.0092 14.0021 25.4466 15.3038C25.8839 16.6056 26.0541 17.9829 25.9469 19.3527V29.3687L25.9325 29.3398ZM13.5125 34.0226C18.17 33.9503 20.1537 31.132 20.5994 29.6144C20.9587 28.1546 20.9012 27.2441 20.9012 25.6543C19.5069 25.3218 17.5087 24.9461 15.2087 24.9461C13.0237 24.7871 9.05624 25.7554 9.21437 29.6144C9.04187 32.0425 10.81 34.1527 13.5269 34.0226H13.5125ZM38.0794 37.3613C36.9437 37.4625 36.4262 36.6531 36.2537 35.8582L29.095 12.0539C28.9512 11.6492 28.865 11.23 28.8219 10.8109C28.8076 10.7235 28.8109 10.634 28.8315 10.5479C28.8521 10.4617 28.8896 10.3806 28.9418 10.3092C28.994 10.2379 29.0599 10.1777 29.1356 10.1323C29.2113 10.0869 29.2952 10.0572 29.3825 10.0449C29.4112 10.0449 29.0806 10.0449 32.5881 10.0449C33.8531 9.9148 34.2556 10.9121 34.3994 11.548L39.5312 31.898L44.3037 11.548C44.3756 11.0855 44.7206 9.94371 46.1437 10.0738H48.6162C48.9325 10.0449 50.2119 10.0015 50.4419 11.5769L55.2431 32.1871L60.5187 11.5769C60.5906 11.2589 60.9069 9.92925 62.3444 10.0738H65.1762C65.3056 10.0593 66.0675 9.95816 65.9381 11.3168C65.8806 11.5914 66.4269 9.77027 58.3481 35.8726C58.1756 36.6675 57.6581 37.4769 56.5225 37.3757H53.8344C52.2675 37.5492 52.0375 35.9738 52.0087 35.8148L47.2506 15.9996L42.5356 35.8003C42.5069 35.9593 42.2912 37.5203 40.71 37.3613H38.0794ZM77.395 38.1707C76.5469 38.1707 72.5219 38.1273 69.1437 36.3929C68.8086 36.2499 68.5231 36.0102 68.3235 35.704C68.1239 35.3979 68.0192 35.0391 68.0225 34.673V33.1121C68.0225 31.8836 68.9137 32.1148 69.2875 32.2593C70.725 32.8519 71.6594 33.2855 73.4275 33.6468C78.7031 34.7308 81.0175 33.3144 81.5781 32.9964C83.4756 31.8691 83.6194 29.282 82.34 27.9378C80.8306 26.666 80.1119 26.6226 74.7069 24.9027C74.0456 24.7148 68.425 22.9371 68.4106 17.3293C68.3244 13.2535 72.0187 9.2066 78.4012 9.23551C80.2269 9.23551 85.0712 9.82808 86.3937 11.4902C86.595 11.7937 86.6812 12.155 86.6669 12.5019V13.9617C86.6669 14.5976 86.4369 14.93 85.9625 14.93C84.8556 14.8 82.8862 13.3113 78.89 13.3691C77.8981 13.3113 73.1544 13.4992 73.37 16.9824C73.3125 19.7285 77.1937 20.7546 77.6394 20.8703C82.8862 22.4601 84.64 22.7203 86.71 25.1484C89.1681 28.3714 87.8456 32.1293 87.3425 33.1554C84.5969 38.5753 77.51 38.1273 77.3806 38.1273L77.395 38.1707ZM83.1737 53.332C73.1112 60.8043 58.4919 64.7933 46.0144 64.7933C29.1755 64.9036 12.905 58.6756 0.40249 47.3339C-0.531885 46.4812 0.28749 45.3105 1.43749 45.9609C15.3083 53.9371 31.0127 58.1274 46.9919 58.116C58.9251 58.0496 70.7278 55.6134 81.7219 50.9472C83.4181 50.2246 84.8556 52.0746 83.1737 53.3175V53.332ZM87.3712 48.5191C86.0775 46.857 78.8469 47.7386 75.6125 48.1289C74.635 48.2445 74.4769 47.3918 75.3537 46.7558C81.1181 42.68 90.5769 43.8507 91.655 45.2238C92.7475 46.5968 91.3531 56.1214 85.9625 60.6742C85.1287 61.3824 84.3381 61.0066 84.7119 60.0816C85.9194 57.0031 88.6506 50.1812 87.3569 48.5191H87.3712Z" fill="black"/>
</g>
<defs>
<clipPath id="clip0_283_544">
<rect width="92" height="74" fill="white"/>
</clipPath>
</defs>
</svg>
