<svg width="59" height="59" viewBox="0 0 59 59" fill="none" xmlns="http://www.w3.org/2000/svg">
<g clip-path="url(#clip0_302_157)">
<path d="M29.5 59C37.3239 59 44.8273 55.892 50.3596 50.3596C55.892 44.8273 59 37.3239 59 29.5C59 21.6761 55.892 14.1727 50.3596 8.64035C44.8273 3.10803 37.3239 0 29.5 0C21.6761 0 14.1727 3.10803 8.64035 8.64035C3.10803 14.1727 0 21.6761 0 29.5C0 37.3239 3.10803 44.8273 8.64035 50.3596C14.1727 55.892 21.6761 59 29.5 59ZM24.8906 38.7188H27.6562V31.3438H24.8906C23.358 31.3438 22.125 30.1107 22.125 28.5781C22.125 27.0455 23.358 25.8125 24.8906 25.8125H30.4219C31.9545 25.8125 33.1875 27.0455 33.1875 28.5781V38.7188H34.1094C35.642 38.7188 36.875 39.9518 36.875 41.4844C36.875 43.017 35.642 44.25 34.1094 44.25H24.8906C23.358 44.25 22.125 43.017 22.125 41.4844C22.125 39.9518 23.358 38.7188 24.8906 38.7188ZM29.5 14.75C30.478 14.75 31.4159 15.1385 32.1075 15.83C32.799 16.5216 33.1875 17.4595 33.1875 18.4375C33.1875 19.4155 32.799 20.3534 32.1075 21.045C31.4159 21.7365 30.478 22.125 29.5 22.125C28.522 22.125 27.5841 21.7365 26.8925 21.045C26.201 20.3534 25.8125 19.4155 25.8125 18.4375C25.8125 17.4595 26.201 16.5216 26.8925 15.83C27.5841 15.1385 28.522 14.75 29.5 14.75Z" fill="#3B3B3B"/>
</g>
<defs>
<clipPath id="clip0_302_157">
<rect width="59" height="59" fill="white"/>
</clipPath>
</defs>
</svg>
