<svg width="104" height="83" viewBox="0 0 104 83" fill="none" xmlns="http://www.w3.org/2000/svg">
<g clip-path="url(#clip0_283_535)">
<path d="M56.8588 38.3064H46.1175V28.6771H56.8588V38.3064ZM56.8588 5.1875H46.1175V15.0275H56.8588V5.1875ZM69.5663 28.6609H58.825V38.2902H69.5663V28.6609ZM44.1675 16.9729H33.4263V26.7156H44.1675V16.9729ZM56.8588 16.9729H46.1175V26.7156H56.8588V16.9729ZM101.839 33.1838C99.4988 31.6113 94.1038 31.0439 89.96 31.8221C89.4238 27.9314 87.2463 24.5434 83.2813 21.4957L81.0063 19.9881L79.495 22.2576C76.505 26.7643 75.6925 34.1889 78.8938 39.0846C77.48 39.8465 74.7013 40.884 71.0288 40.8191H0.390003C-1.02375 49.0543 1.3325 59.7535 7.54 67.0971C13.5688 74.2137 22.6038 77.8287 34.4175 77.8287C59.995 77.8287 78.9263 66.0758 87.7825 44.726C91.26 44.7908 98.7675 44.7422 102.619 37.3986C102.863 36.9934 103.691 35.2588 104 34.6266L101.839 33.1838ZM18.785 28.6609H8.06V38.2902H18.8013V28.6609H18.785ZM31.4763 28.6609H20.735V38.2902H31.4763V28.6609ZM44.1675 28.6609H33.4263V38.2902H44.1675V28.6609ZM31.4763 16.9729H20.735V26.7156H31.4763V16.9729Z" fill="black"/>
</g>
<defs>
<clipPath id="clip0_283_535">
<rect width="104" height="83" fill="white"/>
</clipPath>
</defs>
</svg>
