<svg width="25" height="23" viewBox="0 0 25 23" fill="none" xmlns="http://www.w3.org/2000/svg">
<g clip-path="url(#clip0_710_2)">
<path d="M12.4999 1.4375C8.99295 1.4375 6.18479 3.09062 4.14052 5.0582C2.10927 7.00781 0.75076 9.34375 0.108398 10.9475C-0.0348307 11.3023 -0.0348307 11.6977 0.108398 12.0525C0.75076 13.6562 2.10927 15.9922 4.14052 17.9418C6.18479 19.9094 8.99295 21.5625 12.4999 21.5625C16.0068 21.5625 18.815 19.9094 20.8593 17.9418C22.8905 15.9877 24.249 13.6562 24.8957 12.0525C25.039 11.6977 25.039 11.3023 24.8957 10.9475C24.249 9.34375 22.8905 7.00781 20.8593 5.0582C18.815 3.09062 16.0068 1.4375 12.4999 1.4375ZM6.24989 11.5C6.24989 9.78438 6.90837 8.13903 8.08047 6.9259C9.25258 5.71278 10.8423 5.03125 12.4999 5.03125C14.1575 5.03125 15.7472 5.71278 16.9193 6.9259C18.0914 8.13903 18.7499 9.78438 18.7499 11.5C18.7499 13.2156 18.0914 14.861 16.9193 16.0741C15.7472 17.2872 14.1575 17.9688 12.4999 17.9688C10.8423 17.9688 9.25258 17.2872 8.08047 16.0741C6.90837 14.861 6.24989 13.2156 6.24989 11.5ZM12.4999 8.625C12.4999 10.2107 11.2542 11.5 9.72211 11.5C9.41395 11.5 9.11882 11.4461 8.84104 11.3518C8.60232 11.2709 8.32454 11.4236 8.33323 11.6842C8.34625 11.9941 8.38965 12.3041 8.47211 12.6141C9.06673 14.9141 11.3541 16.2797 13.5763 15.6643C15.7985 15.0488 17.1179 12.6814 16.5233 10.3814C16.0416 8.51719 14.4487 7.26387 12.6778 7.1875C12.4261 7.17852 12.2785 7.46152 12.3567 7.71309C12.4478 8.00059 12.4999 8.30605 12.4999 8.625Z" fill="black"/>
</g>
<defs>
<clipPath id="clip0_710_2">
<rect width="25" height="23" fill="white"/>
</clipPath>
</defs>
</svg>
