<svg width="80" height="83" viewBox="0 0 80 83" fill="none" xmlns="http://www.w3.org/2000/svg">
<path d="M26.7581 64.4223C26.7581 64.7465 26.3871 65.0059 25.9194 65.0059C25.3871 65.0545 25.0161 64.7951 25.0161 64.4223C25.0161 64.098 25.3871 63.8387 25.8548 63.8387C26.3387 63.79 26.7581 64.0494 26.7581 64.4223ZM21.7419 63.6928C21.629 64.017 21.9516 64.3898 22.4355 64.4871C22.8548 64.6492 23.3387 64.4871 23.4355 64.1629C23.5323 63.8387 23.2258 63.4658 22.7419 63.3199C22.3226 63.2064 21.8548 63.3686 21.7419 63.6928ZM28.871 63.4172C28.4032 63.5307 28.0806 63.8387 28.129 64.2115C28.1774 64.5357 28.5968 64.7465 29.0806 64.633C29.5484 64.5195 29.871 64.2115 29.8226 63.8873C29.7742 63.5793 29.3387 63.3686 28.871 63.4172ZM39.4839 1.29688C17.1129 1.29688 0 18.367 0 40.8516C0 58.8295 11.2581 74.2137 27.3387 79.6281C29.4032 80.001 30.129 78.7203 30.129 77.6666C30.129 76.6615 30.0806 71.1174 30.0806 67.7131C30.0806 67.7131 18.7903 70.1447 16.4194 62.8822C16.4194 62.8822 14.5806 58.1648 11.9355 56.949C11.9355 56.949 8.24193 54.4039 12.1935 54.4525C12.1935 54.4525 16.2097 54.7768 18.4194 58.635C21.9516 64.8924 27.871 63.093 30.1774 62.023C30.5484 59.4293 31.5968 57.6299 32.7581 56.56C23.7419 55.5549 14.6452 54.2418 14.6452 38.6469C14.6452 34.1889 15.871 31.9518 18.4516 29.0986C18.0323 28.0449 16.6613 23.7004 18.871 18.0914C22.2419 17.0377 30 22.4684 30 22.4684C33.2258 21.5605 36.6935 21.0904 40.129 21.0904C43.5645 21.0904 47.0323 21.5605 50.2581 22.4684C50.2581 22.4684 58.0161 17.0215 61.3871 18.0914C63.5968 23.7166 62.2258 28.0449 61.8064 29.0986C64.3871 31.968 65.9677 34.2051 65.9677 38.6469C65.9677 54.2904 56.4677 55.5387 47.4516 56.56C48.9355 57.8406 50.1936 60.2723 50.1936 64.0818C50.1936 69.5449 50.1452 76.3049 50.1452 77.6342C50.1452 78.6879 50.8871 79.9686 52.9355 79.5957C69.0645 74.2137 80 58.8295 80 40.8516C80 18.367 61.8548 1.29688 39.4839 1.29688ZM15.6774 57.2084C15.4677 57.3705 15.5161 57.7434 15.7903 58.0514C16.0484 58.3107 16.4194 58.4242 16.629 58.2135C16.8387 58.0514 16.7903 57.6785 16.5161 57.3705C16.2581 57.1111 15.8871 56.9977 15.6774 57.2084ZM13.9355 55.8953C13.8226 56.1061 13.9839 56.3654 14.3065 56.5275C14.5645 56.6897 14.8871 56.641 15 56.4141C15.1129 56.2033 14.9516 55.9439 14.629 55.7818C14.3065 55.6846 14.0484 55.7332 13.9355 55.8953ZM19.1613 61.6664C18.9032 61.8771 19 62.3635 19.371 62.6715C19.7419 63.0443 20.2097 63.093 20.4194 62.8336C20.629 62.6229 20.5323 62.1365 20.2097 61.8285C19.8548 61.4557 19.371 61.407 19.1613 61.6664ZM17.3226 59.2834C17.0645 59.4455 17.0645 59.867 17.3226 60.2398C17.5806 60.6127 18.0161 60.7748 18.2258 60.6127C18.4839 60.402 18.4839 59.9805 18.2258 59.6076C18 59.2348 17.5806 59.0727 17.3226 59.2834Z" fill="black"/>
</svg>
