<svg width="39" height="39" viewBox="0 0 39 39" fill="none" xmlns="http://www.w3.org/2000/svg">
<g clip-path="url(#clip0_283_185)">
<path d="M19.5 21.9375C22.4091 21.9375 25.199 20.7819 27.2561 18.7248C29.3131 16.6678 30.4688 13.8778 30.4688 10.9688C30.4688 8.05966 29.3131 5.26971 27.2561 3.21267C25.199 1.15563 22.4091 0 19.5 0C16.5909 0 13.801 1.15563 11.7439 3.21267C9.68688 5.26971 8.53125 8.05966 8.53125 10.9688C8.53125 13.8778 9.68688 16.6678 11.7439 18.7248C13.801 20.7819 16.5909 21.9375 19.5 21.9375ZM12.2865 24.375C5.49961 24.375 0 29.8746 0 36.6615C0 37.9564 1.05117 39 2.33848 39H36.6615C37.9564 39 39 37.9488 39 36.6615C39 29.8746 33.5004 24.375 26.7135 24.375H12.2865Z" fill="white"/>
</g>
<defs>
<clipPath id="clip0_283_185">
<rect width="39" height="39" fill="white"/>
</clipPath>
</defs>
</svg>
