<svg width="23" height="23" viewBox="0 0 23 23" fill="none" xmlns="http://www.w3.org/2000/svg">
<g clip-path="url(#clip0_283_268)">
<path d="M17.7646 10.5244L18.2404 10.0486L16.813 8.62119L14.1981 6.00632L12.7706 4.57888L12.2948 5.0547L11.3432 6.00632L2.9554 14.3941C2.51749 14.832 2.19747 15.3752 2.02062 15.9689L0.530017 21.0387C0.424748 21.3924 0.521595 21.7755 0.786872 22.0366C1.05215 22.2977 1.43112 22.3945 1.78482 22.2935L6.85034 20.8029C7.44405 20.626 7.98724 20.306 8.42515 19.8681L16.813 11.4803L17.7646 10.5244ZM7.22509 17.6153L6.84192 18.5712C6.67349 18.7017 6.484 18.7985 6.28189 18.8617L2.98909 19.8302L3.95756 16.5416C4.01651 16.3353 4.11757 16.1458 4.2481 15.9816L5.20394 15.5984V16.9458C5.20394 17.3164 5.50711 17.6195 5.87766 17.6195H7.22509V17.6153ZM15.7603 1.58505L15.1539 2.1956L14.2023 3.14723L13.7223 3.62304L15.1497 5.05048L17.7646 7.66535L19.192 9.09279L19.6678 8.61698L20.6195 7.66535L21.23 7.0548C22.2827 6.00211 22.2827 4.29676 21.23 3.24408L19.5752 1.58505C18.5225 0.532361 16.8172 0.532361 15.7645 1.58505H15.7603ZM13.7644 8.65909L7.70091 14.7226C7.43984 14.9836 7.01035 14.9836 6.74928 14.7226C6.48821 14.4615 6.48821 14.032 6.74928 13.7709L12.8127 7.70746C13.0738 7.4464 13.5033 7.4464 13.7644 7.70746C14.0254 7.96853 14.0254 8.39802 13.7644 8.65909Z" fill="black"/>
</g>
<defs>
<clipPath id="clip0_283_268">
<rect width="21.559" height="21.559" fill="white" transform="translate(0.488281 0.797729)"/>
</clipPath>
</defs>
</svg>
