<svg width="25" height="29" viewBox="0 0 25 29" fill="none" xmlns="http://www.w3.org/2000/svg">
<g clip-path="url(#clip0_302_155)">
<path d="M7.54464 1.00254C7.84598 0.385156 8.4654 0 9.14062 0H15.8594C16.5346 0 17.154 0.385156 17.4554 1.00254L17.8571 1.8125H23.2143C24.202 1.8125 25 2.62246 25 3.625C25 4.62754 24.202 5.4375 23.2143 5.4375H1.78571C0.797991 5.4375 0 4.62754 0 3.625C0 2.62246 0.797991 1.8125 1.78571 1.8125H7.14286L7.54464 1.00254ZM1.78571 7.25H23.2143V25.375C23.2143 27.3744 21.6127 29 19.6429 29H5.35714C3.38728 29 1.78571 27.3744 1.78571 25.375V7.25ZM7.14286 10.875C6.65179 10.875 6.25 11.2828 6.25 11.7812V24.4688C6.25 24.9672 6.65179 25.375 7.14286 25.375C7.63393 25.375 8.03571 24.9672 8.03571 24.4688V11.7812C8.03571 11.2828 7.63393 10.875 7.14286 10.875ZM12.5 10.875C12.0089 10.875 11.6071 11.2828 11.6071 11.7812V24.4688C11.6071 24.9672 12.0089 25.375 12.5 25.375C12.9911 25.375 13.3929 24.9672 13.3929 24.4688V11.7812C13.3929 11.2828 12.9911 10.875 12.5 10.875ZM17.8571 10.875C17.3661 10.875 16.9643 11.2828 16.9643 11.7812V24.4688C16.9643 24.9672 17.3661 25.375 17.8571 25.375C18.3482 25.375 18.75 24.9672 18.75 24.4688V11.7812C18.75 11.2828 18.3482 10.875 17.8571 10.875Z" fill="white"/>
</g>
<defs>
<clipPath id="clip0_302_155">
<rect width="25" height="29" fill="white"/>
</clipPath>
</defs>
</svg>
