<svg width="48" height="48" viewBox="0 0 48 48" fill="none" xmlns="http://www.w3.org/2000/svg">
<g clip-path="url(#clip0_283_240)">
<path d="M38.1094 37.4625C36.3187 33.0844 32.0156 30 27 30H21C15.9844 30 11.6812 33.0844 9.89062 37.4625C6.55313 33.9562 4.5 29.2219 4.5 24C4.5 13.2281 13.2281 4.5 24 4.5C34.7719 4.5 43.5 13.2281 43.5 24C43.5 29.2219 41.4469 33.9562 38.1094 37.4625ZM34.35 40.5281C31.35 42.4125 27.8062 43.5 24 43.5C20.1938 43.5 16.65 42.4125 13.6406 40.5281C14.325 37.0875 17.3625 34.5 21 34.5H27C30.6375 34.5 33.675 37.0875 34.3594 40.5281H34.35ZM24 48C30.3652 48 36.4697 45.4714 40.9706 40.9706C45.4714 36.4697 48 30.3652 48 24C48 17.6348 45.4714 11.5303 40.9706 7.02944C36.4697 2.52856 30.3652 0 24 0C17.6348 0 11.5303 2.52856 7.02944 7.02944C2.52856 11.5303 0 17.6348 0 24C0 30.3652 2.52856 36.4697 7.02944 40.9706C11.5303 45.4714 17.6348 48 24 48ZM24 22.5C23.0054 22.5 22.0516 22.1049 21.3484 21.4016C20.6451 20.6984 20.25 19.7446 20.25 18.75C20.25 17.7554 20.6451 16.8016 21.3484 16.0984C22.0516 15.3951 23.0054 15 24 15C24.9946 15 25.9484 15.3951 26.6516 16.0984C27.3549 16.8016 27.75 17.7554 27.75 18.75C27.75 19.7446 27.3549 20.6984 26.6516 21.4016C25.9484 22.1049 24.9946 22.5 24 22.5ZM15.75 18.75C15.75 20.938 16.6192 23.0365 18.1664 24.5836C19.7135 26.1308 21.812 27 24 27C26.188 27 28.2865 26.1308 29.8336 24.5836C31.3808 23.0365 32.25 20.938 32.25 18.75C32.25 16.562 31.3808 14.4635 29.8336 12.9164C28.2865 11.3692 26.188 10.5 24 10.5C21.812 10.5 19.7135 11.3692 18.1664 12.9164C16.6192 14.4635 15.75 16.562 15.75 18.75Z" fill="white"/>
</g>
<defs>
<clipPath id="clip0_283_240">
<rect width="48" height="48" fill="white"/>
</clipPath>
</defs>
</svg>
